# xmcd
#
# Track frame offsets: 
#        182
#        12670
#        25415
#        39440
#        52350
#        68320
#        79820
#        94232
#        107302
#        122805
#
# Disc length: 1901 seconds
#
# Revision: 3
# Processed by: cddbd v1.5.1PL2 Copyright (c) Steve Scherf et al.
# Submitted via: ExactAudioCopy v0.95b3
#
DISCID=7e076b0a
DTITLE=David Ball - Starlite Lounge
DYEAR=1996
DGENRE=Country
TTITLE0=Hangin' In And Hangin' On
TTITLE1=Circle Of Friends
TTITLE2=I've Got My Baby On My Mind
TTITLE3=What Kind Of Hold
TTITLE4=I'll Never Make It Through This Fall
TTITLE5=Bad Day For The Blues
TTITLE6=If You'd Like Some Lovin'
TTITLE7=No More Lonely
TTITLE8=I Never Did Know
TTITLE9=The Bottle That Pours The Wine
EXTD=YEAR: 1996 ID3G: 2
EXTT0=
EXTT1=
EXTT2=
EXTT3=
EXTT4=
EXTT5=
EXTT6=
EXTT7=
EXTT8=
EXTT9=
PLAYORDER=
